<svg xmlns="http://www.w3.org/2000/svg" xmlns:xlink="http://www.w3.org/1999/xlink" width="500" zoomAndPan="magnify" viewBox="0 0 375 374.999991" height="500" preserveAspectRatio="xMidYMid meet" version="1.0"><defs><g/><clipPath id="909833652f"><path d="M 13.855469 145.503906 L 98.058594 145.503906 L 98.058594 229.453125 L 13.855469 229.453125 Z M 13.855469 145.503906 " clip-rule="nonzero"/></clipPath></defs><path fill="#00c9d9" d="M 95.402344 149.945312 C 94.464844 149.945312 93.515625 150.1875 92.644531 150.699219 C 72.535156 162.546875 58.25 183.796875 51.6875 195.066406 L 40.964844 181.625 C 39.894531 180.277344 38.308594 179.578125 36.710938 179.578125 C 35.527344 179.578125 34.332031 179.964844 33.332031 180.757812 C 30.984375 182.621094 30.59375 186.027344 32.460938 188.367188 L 48.304688 208.226562 C 49.34375 209.527344 50.914062 210.273438 52.554688 210.273438 C 52.757812 210.273438 52.960938 210.261719 53.164062 210.238281 C 55.023438 210.027344 56.644531 208.882812 57.453125 207.199219 C 57.609375 206.875 73.324219 174.660156 98.171875 160.027344 C 100.753906 158.503906 101.609375 155.183594 100.085938 152.609375 C 99.070312 150.898438 97.261719 149.945312 95.402344 149.945312 " fill-opacity="1" fill-rule="nonzero"/><g clip-path="url(#909833652f)"><path fill="#00c9d9" d="M 94.761719 170.847656 L 94.105469 171.070312 C 92.386719 172.4375 90.730469 173.886719 89.132812 175.382812 L 89.414062 176.21875 C 90.636719 179.835938 91.257812 183.625 91.257812 187.476562 C 91.257812 206.890625 75.417969 222.683594 55.953125 222.683594 C 36.484375 222.683594 20.644531 206.890625 20.644531 187.476562 C 20.644531 176.195312 26.132812 165.515625 35.320312 158.90625 C 41.351562 154.566406 48.488281 152.273438 55.953125 152.273438 C 61.84375 152.273438 67.675781 153.746094 72.816406 156.539062 L 73.285156 156.796875 C 75.054688 155.175781 76.890625 153.59375 78.792969 152.074219 L 76.0625 150.59375 C 69.929688 147.261719 62.976562 145.5 55.953125 145.5 C 48.195312 145.5 40.734375 147.582031 34.179688 151.542969 L 34.101562 151.433594 L 28.59375 155.394531 L 28.675781 155.511719 C 19.34375 163.449219 13.855469 175.160156 13.855469 187.476562 C 13.855469 210.625 32.738281 229.453125 55.953125 229.453125 C 79.164062 229.453125 98.046875 210.625 98.046875 187.476562 C 98.046875 182.886719 97.308594 178.371094 95.847656 174.054688 L 94.761719 170.847656 " fill-opacity="1" fill-rule="nonzero"/></g><g fill="#333333" fill-opacity="1"><g transform="translate(114.522535, 208.874986)"><g><path d="M 23.125 -8.984375 L 23.125 0 L 17.734375 0 C 13.890625 0 10.890625 -0.9375 8.734375 -2.8125 C 6.585938 -4.695312 5.515625 -7.769531 5.515625 -12.03125 L 5.515625 -25.796875 L 1.296875 -25.796875 L 1.296875 -34.59375 L 5.515625 -34.59375 L 5.515625 -43.03125 L 16.125 -43.03125 L 16.125 -34.59375 L 23.0625 -34.59375 L 23.0625 -25.796875 L 16.125 -25.796875 L 16.125 -11.90625 C 16.125 -10.875 16.367188 -10.128906 16.859375 -9.671875 C 17.359375 -9.210938 18.1875 -8.984375 19.34375 -8.984375 Z M 23.125 -8.984375 "/></g></g></g><g fill="#333333" fill-opacity="1"><g transform="translate(139.69133, 208.874986)"><g><path d="M 19.59375 0.5 C 16.207031 0.5 13.160156 -0.222656 10.453125 -1.671875 C 7.742188 -3.117188 5.613281 -5.1875 4.0625 -7.875 C 2.507812 -10.5625 1.734375 -13.703125 1.734375 -17.296875 C 1.734375 -20.847656 2.519531 -23.976562 4.09375 -26.6875 C 5.664062 -29.394531 7.8125 -31.472656 10.53125 -32.921875 C 13.257812 -34.367188 16.320312 -35.09375 19.71875 -35.09375 C 23.101562 -35.09375 26.160156 -34.367188 28.890625 -32.921875 C 31.617188 -31.472656 33.769531 -29.394531 35.34375 -26.6875 C 36.914062 -23.976562 37.703125 -20.847656 37.703125 -17.296875 C 37.703125 -13.742188 36.90625 -10.613281 35.3125 -7.90625 C 33.71875 -5.195312 31.546875 -3.117188 28.796875 -1.671875 C 26.046875 -0.222656 22.976562 0.5 19.59375 0.5 Z M 19.59375 -8.6875 C 21.613281 -8.6875 23.335938 -9.425781 24.765625 -10.90625 C 26.191406 -12.394531 26.90625 -14.523438 26.90625 -17.296875 C 26.90625 -20.066406 26.210938 -22.195312 24.828125 -23.6875 C 23.441406 -25.175781 21.738281 -25.921875 19.71875 -25.921875 C 17.644531 -25.921875 15.925781 -25.1875 14.5625 -23.71875 C 13.207031 -22.25 12.53125 -20.109375 12.53125 -17.296875 C 12.53125 -14.523438 13.195312 -12.394531 14.53125 -10.90625 C 15.875 -9.425781 17.5625 -8.6875 19.59375 -8.6875 Z M 19.59375 -8.6875 "/></g></g></g><g fill="#333333" fill-opacity="1"><g transform="translate(179.180299, 208.874986)"><g><path d="M 1.734375 -17.359375 C 1.734375 -20.910156 2.40625 -24.03125 3.75 -26.71875 C 5.09375 -29.40625 6.921875 -31.472656 9.234375 -32.921875 C 11.546875 -34.367188 14.128906 -35.09375 16.984375 -35.09375 C 19.253906 -35.09375 21.332031 -34.613281 23.21875 -33.65625 C 25.101562 -32.707031 26.582031 -31.429688 27.65625 -29.828125 L 27.65625 -45.875 L 38.25 -45.875 L 38.25 0 L 27.65625 0 L 27.65625 -4.953125 C 26.65625 -3.304688 25.234375 -1.984375 23.390625 -0.984375 C 21.554688 0.00390625 19.421875 0.5 16.984375 0.5 C 14.128906 0.5 11.546875 -0.234375 9.234375 -1.703125 C 6.921875 -3.171875 5.09375 -5.257812 3.75 -7.96875 C 2.40625 -10.675781 1.734375 -13.804688 1.734375 -17.359375 Z M 27.65625 -17.296875 C 27.65625 -19.941406 26.921875 -22.03125 25.453125 -23.5625 C 23.984375 -25.09375 22.195312 -25.859375 20.09375 -25.859375 C 17.976562 -25.859375 16.1875 -25.101562 14.71875 -23.59375 C 13.257812 -22.082031 12.53125 -20.003906 12.53125 -17.359375 C 12.53125 -14.710938 13.257812 -12.613281 14.71875 -11.0625 C 16.1875 -9.507812 17.976562 -8.734375 20.09375 -8.734375 C 22.195312 -8.734375 23.984375 -9.5 25.453125 -11.03125 C 26.921875 -12.5625 27.65625 -14.648438 27.65625 -17.296875 Z M 27.65625 -17.296875 "/></g></g></g><g fill="#333333" fill-opacity="1"><g transform="translate(221.272936, 208.874986)"><g><path d="M 19.59375 0.5 C 16.207031 0.5 13.160156 -0.222656 10.453125 -1.671875 C 7.742188 -3.117188 5.613281 -5.1875 4.0625 -7.875 C 2.507812 -10.5625 1.734375 -13.703125 1.734375 -17.296875 C 1.734375 -20.847656 2.519531 -23.976562 4.09375 -26.6875 C 5.664062 -29.394531 7.8125 -31.472656 10.53125 -32.921875 C 13.257812 -34.367188 16.320312 -35.09375 19.71875 -35.09375 C 23.101562 -35.09375 26.160156 -34.367188 28.890625 -32.921875 C 31.617188 -31.472656 33.769531 -29.394531 35.34375 -26.6875 C 36.914062 -23.976562 37.703125 -20.847656 37.703125 -17.296875 C 37.703125 -13.742188 36.90625 -10.613281 35.3125 -7.90625 C 33.71875 -5.195312 31.546875 -3.117188 28.796875 -1.671875 C 26.046875 -0.222656 22.976562 0.5 19.59375 0.5 Z M 19.59375 -8.6875 C 21.613281 -8.6875 23.335938 -9.425781 24.765625 -10.90625 C 26.191406 -12.394531 26.90625 -14.523438 26.90625 -17.296875 C 26.90625 -20.066406 26.210938 -22.195312 24.828125 -23.6875 C 23.441406 -25.175781 21.738281 -25.921875 19.71875 -25.921875 C 17.644531 -25.921875 15.925781 -25.1875 14.5625 -23.71875 C 13.207031 -22.25 12.53125 -20.109375 12.53125 -17.296875 C 12.53125 -14.523438 13.195312 -12.394531 14.53125 -10.90625 C 15.875 -9.425781 17.5625 -8.6875 19.59375 -8.6875 Z M 19.59375 -8.6875 "/></g></g></g><g fill="#333333" fill-opacity="1"><g transform="translate(260.761905, 208.874986)"><g><path d="M 19.40625 -9.921875 L 26.90625 -34.59375 L 38.1875 -34.59375 L 25.921875 0 L 12.828125 0 L 0.5625 -34.59375 L 11.90625 -34.59375 Z M 19.40625 -9.921875 "/></g></g></g><g fill="#333333" fill-opacity="1"><g transform="translate(299.568966, 208.874986)"><g><path d="M 36.453125 -17.859375 C 36.453125 -16.867188 36.390625 -15.832031 36.265625 -14.75 L 12.28125 -14.75 C 12.445312 -12.601562 13.140625 -10.960938 14.359375 -9.828125 C 15.578125 -8.691406 17.070312 -8.125 18.84375 -8.125 C 21.488281 -8.125 23.328125 -9.238281 24.359375 -11.46875 L 35.65625 -11.46875 C 35.070312 -9.195312 34.023438 -7.148438 32.515625 -5.328125 C 31.003906 -3.515625 29.113281 -2.085938 26.84375 -1.046875 C 24.570312 -0.015625 22.03125 0.5 19.21875 0.5 C 15.832031 0.5 12.816406 -0.222656 10.171875 -1.671875 C 7.523438 -3.117188 5.457031 -5.1875 3.96875 -7.875 C 2.476562 -10.5625 1.734375 -13.703125 1.734375 -17.296875 C 1.734375 -20.890625 2.46875 -24.03125 3.9375 -26.71875 C 5.40625 -29.40625 7.460938 -31.472656 10.109375 -32.921875 C 12.753906 -34.367188 15.789062 -35.09375 19.21875 -35.09375 C 22.5625 -35.09375 25.535156 -34.390625 28.140625 -32.984375 C 30.742188 -31.578125 32.78125 -29.570312 34.25 -26.96875 C 35.71875 -24.363281 36.453125 -21.328125 36.453125 -17.859375 Z M 25.609375 -20.640625 C 25.609375 -22.460938 24.988281 -23.910156 23.75 -24.984375 C 22.507812 -26.054688 20.957031 -26.59375 19.09375 -26.59375 C 17.320312 -26.59375 15.820312 -26.078125 14.59375 -25.046875 C 13.375 -24.015625 12.625 -22.546875 12.34375 -20.640625 Z M 25.609375 -20.640625 "/></g></g></g><g fill="#333333" fill-opacity="1"><g transform="translate(337.756101, 208.874986)"><g><path d="M 14.453125 -28.828125 C 15.691406 -30.734375 17.238281 -32.234375 19.09375 -33.328125 C 20.957031 -34.421875 23.023438 -34.96875 25.296875 -34.96875 L 25.296875 -23.75 L 22.375 -23.75 C 19.726562 -23.75 17.742188 -23.179688 16.421875 -22.046875 C 15.109375 -20.910156 14.453125 -18.914062 14.453125 -16.0625 L 14.453125 0 L 3.84375 0 L 3.84375 -34.59375 L 14.453125 -34.59375 Z M 14.453125 -28.828125 "/></g></g></g></svg>